<svg id="clock_1_" data-name="clock (1)" xmlns="http://www.w3.org/2000/svg" width="17.232" height="17.232" viewBox="0 0 17.232 17.232">
  <path id="Path_483" data-name="Path 483" d="M8.616,17.232a8.616,8.616,0,1,1,8.616-8.616A8.625,8.625,0,0,1,8.616,17.232Zm0-16.155a7.539,7.539,0,1,0,7.539,7.539A7.547,7.547,0,0,0,8.616,1.077Zm0,0"/>
  <path id="Path_484" data-name="Path 484" d="M244.308,111.2a.534.534,0,0,1-.381-.158l-3.769-3.769a.539.539,0,0,1-.158-.38v-5.026a.538.538,0,1,1,1.077,0v4.8l3.612,3.612a.539.539,0,0,1-.381.92Zm0,0" transform="translate(-231.923 -97.922)"/>
</svg>
