<svg xmlns="http://www.w3.org/2000/svg" width="15.25" height="15.25" viewBox="0 0 15.25 15.25">
  <path id="Icon_ionic-ios-close-circle" data-name="Icon ionic-ios-close-circle" d="M11,3.375A7.625,7.625,0,1,0,18.625,11,7.624,7.624,0,0,0,11,3.375ZM12.932,13.76,11,11.828,9.068,13.76a.586.586,0,1,1-.828-.828L10.172,11,8.24,9.068a.586.586,0,0,1,.828-.828L11,10.172,12.932,8.24a.586.586,0,1,1,.828.828L11.828,11l1.932,1.932a.589.589,0,0,1,0,.828A.582.582,0,0,1,12.932,13.76Z" transform="translate(-3.375 -3.375)" fill="#838383"/>
</svg>
