<svg xmlns="http://www.w3.org/2000/svg" width="15.791" height="10.151" viewBox="0 0 15.791 10.151">
  <g id="equalizer" transform="translate(0 0)">
    <g id="Group_168" data-name="Group 168" transform="translate(0 5.639)">
      <g id="Group_167" data-name="Group 167">
        <path id="Path_149" data-name="Path 149" d="M15.227,172.359h-9.1a2.245,2.245,0,0,0-4.352,0H.564a.564.564,0,1,0,0,1.128H1.772a2.245,2.245,0,0,0,4.352,0h9.1a.564.564,0,1,0,0-1.128ZM3.948,174.05a1.128,1.128,0,1,1,1.128-1.128A1.128,1.128,0,0,1,3.948,174.05Z" transform="translate(0 -170.667)" fill="#141414"/>
      </g>
    </g>
    <g id="Group_170" data-name="Group 170" transform="translate(0 0)">
      <g id="Group_169" data-name="Group 169" transform="translate(0 0)">
        <path id="Path_150" data-name="Path 150" d="M15.227,1.692H13.455a2.245,2.245,0,0,0-4.352,0H.564a.564.564,0,1,0,0,1.128H9.1a2.245,2.245,0,0,0,4.352,0h1.772a.564.564,0,1,0,0-1.128ZM11.279,3.383a1.128,1.128,0,1,1,1.128-1.128A1.128,1.128,0,0,1,11.279,3.383Z" transform="translate(0 0)" fill="#141414"/>
      </g>
    </g>
  </g>
</svg>
