<svg xmlns="http://www.w3.org/2000/svg" width="24.68" height="22.009" viewBox="0 0 24.68 22.009">
  <g id="web-page-home" transform="translate(0 -26.353)">
    <g id="Group_86" data-name="Group 86" transform="translate(0 26.353)">
      <path id="Path_124" data-name="Path 124" d="M.853,39.46h2.01V47.5a.864.864,0,0,0,.862.862H9.612a.864.864,0,0,0,.862-.862V41.614h3.59V47.5a.864.864,0,0,0,.862.862h5.6a.864.864,0,0,0,.862-.862V39.46h2.441A.858.858,0,0,0,24.43,38L13.2,26.608A.858.858,0,0,0,12,26.594L.264,37.981a.862.862,0,0,0-.2.948A.84.84,0,0,0,.853,39.46ZM12.57,28.432l9.19,9.3H20.524a.864.864,0,0,0-.862.862v8.041H15.786V40.752a.864.864,0,0,0-.862-.862H9.612a.864.864,0,0,0-.862.862v5.887H4.586V38.6a.864.864,0,0,0-.862-.862H2.978Z" transform="translate(0 -26.353)" fill="#fff"/>
    </g>
  </g>
</svg>
