<svg xmlns="http://www.w3.org/2000/svg" xmlns:xlink="http://www.w3.org/1999/xlink" width="18" height="18" viewBox="0 0 18 18">
  <defs>
    <clipPath id="clip-path">
      <rect id="Rectangle_345" data-name="Rectangle 345" width="18" height="18" fill="#333" stroke="#707070" stroke-width="1"/>
    </clipPath>
  </defs>
  <g id="Mask_Group_28" data-name="Mask Group 28" clip-path="url(#clip-path)">
    <g id="list-square-rounded-interface-symbol" transform="translate(0 0)">
      <g id="Group_549" data-name="Group 549">
        <path id="Path_485" data-name="Path 485" d="M15,0H3A3,3,0,0,0,0,3V15a3,3,0,0,0,3,3H15a3,3,0,0,0,3-3V3A3,3,0,0,0,15,0Zm1.5,15A1.5,1.5,0,0,1,15,16.5H3A1.5,1.5,0,0,1,1.5,15V3A1.5,1.5,0,0,1,3,1.5H15A1.5,1.5,0,0,1,16.5,3Z" transform="translate(0 0)" fill="#333"/>
        <circle id="Ellipse_100" data-name="Ellipse 100" cx="1.125" cy="1.125" r="1.125" transform="translate(3.297 4.875)" fill="#333"/>
        <path id="Path_486" data-name="Path 486" d="M14.736,5.833H8.58a.75.75,0,0,0,0,1.5h6.156a.75.75,0,0,0,0-1.5Z" transform="translate(-0.783 -0.583)" fill="#333"/>
        <circle id="Ellipse_101" data-name="Ellipse 101" cx="1.125" cy="1.125" r="1.125" transform="translate(3.297 7.875)" fill="#333"/>
        <path id="Path_487" data-name="Path 487" d="M14.736,9.167H8.58a.75.75,0,1,0,0,1.5h6.156a.75.75,0,1,0,0-1.5Z" transform="translate(-0.783 -0.917)" fill="#333"/>
        <circle id="Ellipse_102" data-name="Ellipse 102" cx="1.125" cy="1.125" r="1.125" transform="translate(3.297 10.875)" fill="#333"/>
        <path id="Path_488" data-name="Path 488" d="M14.736,12.5H8.58a.75.75,0,1,0,0,1.5h6.156a.75.75,0,1,0,0-1.5Z" transform="translate(-0.783 -1.25)" fill="#333"/>
      </g>
    </g>
  </g>
</svg>
