<svg id="Group_142" data-name="Group 142" xmlns="http://www.w3.org/2000/svg" width="40" height="40" viewBox="0 0 40 40">
  <g id="Ellipse_50" data-name="Ellipse 50" transform="translate(0 0)" fill="#fff" stroke="#efefef" stroke-width="1">
    <circle cx="20" cy="20" r="20" stroke="none"/>
    <circle cx="20" cy="20" r="19.5" fill="none"/>
  </g>
  <g id="sharing-interface" transform="translate(10.588 11.764)">
    <g id="Group_130" data-name="Group 130">
      <path id="Path_136" data-name="Path 136" d="M14.723,11.791a3.028,3.028,0,0,0-2.2.948L6.046,9.568a2.769,2.769,0,0,0,0-.9l6.465-3.135a3.039,3.039,0,1,0-.832-2.086,3.063,3.063,0,0,0,.036.444L5.252,7.028a3.042,3.042,0,1,0-.008,4.18l6.474,3.17a3,3,0,0,0-.038.454,3.042,3.042,0,1,0,3.042-3.042Z" transform="translate(0 -0.407)" fill="#3e3e3e"/>
    </g>
  </g>
</svg>
