<svg xmlns="http://www.w3.org/2000/svg" width="24" height="24" viewBox="0 0 24 24">
  <g id="Group_642" data-name="Group 642" transform="translate(-113 -1081)">
    <circle id="Ellipse_115" data-name="Ellipse 115" cx="12" cy="12" r="12" transform="translate(113 1081)" fill="#159b20"/>
    <path id="Icon_awesome-check" data-name="Icon awesome-check" d="M5.01,15.361.216,10.567a.738.738,0,0,1,0-1.043L1.259,8.481a.738.738,0,0,1,1.043,0l3.23,3.229,6.917-6.917a.738.738,0,0,1,1.043,0l1.043,1.043a.738.738,0,0,1,0,1.043L6.053,15.361A.738.738,0,0,1,5.01,15.361Z" transform="translate(118 1083.423)" fill="#fff"/>
  </g>
</svg>
