<svg xmlns="http://www.w3.org/2000/svg" width="10.585" height="14.203" viewBox="0 0 10.585 14.203">
  <g id="rubbish-bin_1_" data-name="rubbish-bin (1)" transform="translate(-52.016)">
    <g id="Group_121" data-name="Group 121" transform="translate(52.016)">
      <path id="Path_132" data-name="Path 132" d="M74.52,109.527a.715.715,0,0,0,.714.685h6.673a.715.715,0,0,0,.714-.685L83.1,99.468H74.043Zm5.56-7.561a.29.29,0,0,1,.29-.29h.464a.29.29,0,0,1,.29.29v5.747a.29.29,0,0,1-.29.29H80.37a.29.29,0,0,1-.29-.29Zm-2.032,0a.29.29,0,0,1,.29-.29H78.8a.29.29,0,0,1,.29.29v5.747a.29.29,0,0,1-.29.29h-.464a.29.29,0,0,1-.29-.29v-5.747Zm-2.032,0a.29.29,0,0,1,.29-.29h.464a.29.29,0,0,1,.29.29v5.747a.29.29,0,0,1-.29.29h-.464a.29.29,0,0,1-.29-.29Z" transform="translate(-73.277 -96.01)" fill="#113598"/>
      <path id="Path_133" data-name="Path 133" d="M62.153.732H59.075V.15a.15.15,0,0,0-.15-.15H55.692a.15.15,0,0,0-.15.15V.732H52.465a.449.449,0,0,0-.449.449V2.589H62.6V1.18A.449.449,0,0,0,62.153.732Z" transform="translate(-52.016)" fill="#113598"/>
    </g>
  </g>
</svg>
