<svg xmlns="http://www.w3.org/2000/svg" xmlns:xlink="http://www.w3.org/1999/xlink" width="25" height="25" viewBox="0 0 25 25">
  <defs>
    <clipPath id="clip-path">
      <rect id="Rectangle_46" data-name="Rectangle 46" width="25" height="25" transform="translate(162 600)" fill="#fff" stroke="#707070" stroke-width="1"/>
    </clipPath>
  </defs>
  <g id="Mask_Group_16" data-name="Mask Group 16" transform="translate(-162 -600)" clip-path="url(#clip-path)">
    <g id="star" transform="translate(162 600)">
      <path id="Path_38" data-name="Path 38" d="M25,9.818q0-.556-.842-.691l-7.542-1.1-3.38-6.836Q12.951.578,12.5.578t-.736.616L8.383,8.03.841,9.127Q0,9.262,0,9.818a1.145,1.145,0,0,0,.376.721l5.469,5.319L4.552,23.37a2.44,2.44,0,0,0-.03.3.886.886,0,0,0,.158.533.545.545,0,0,0,.473.218,1.275,1.275,0,0,0,.6-.18L12.5,20.7l6.746,3.546a1.216,1.216,0,0,0,.6.18q.617,0,.616-.751a2.276,2.276,0,0,0-.015-.3l-1.292-7.512L24.61,10.54A1.088,1.088,0,0,0,25,9.818Zm-7.917,5.364,1.081,6.325L12.5,18.517l-5.679,2.99,1.1-6.325-4.6-4.462,6.34-.931L12.5,4.049l2.839,5.739,6.341.931Z" fill="#fff"/>
    </g>
  </g>
</svg>
