<svg xmlns="http://www.w3.org/2000/svg" width="41" height="41" viewBox="0 0 41 41">
  <g id="Group_1652" data-name="Group 1652" transform="translate(-927.5 -142.5)">
    <g id="Icon_feather-zoom-in" data-name="Icon feather-zoom-in" transform="translate(923.5 138.5)">
      <path id="Path_3727" data-name="Path 3727" d="M44.5,24.5a20,20,0,1,1-20-20A20,20,0,0,1,44.5,24.5Z" fill="none" stroke="#fb641b" stroke-linecap="round" stroke-linejoin="round" stroke-width="1"/>
    </g>
    <path id="Icon_ionic-ios-person" data-name="Icon ionic-ios-person" d="M20.492,20.1c-.3-1.325-2.012-1.971-2.6-2.179a19.416,19.416,0,0,0-2.171-.417,2.206,2.206,0,0,1-1-.462,8.776,8.776,0,0,1-.067-2.054,6.18,6.18,0,0,0,.475-.9,11.663,11.663,0,0,0,.35-1.579s.342,0,.462-.6a5.9,5.9,0,0,0,.308-1.4c-.025-.479-.288-.467-.288-.467A7.305,7.305,0,0,0,16.238,7.9,3.433,3.433,0,0,0,12.5,4.5,3.418,3.418,0,0,0,8.767,7.9a7.62,7.62,0,0,0,.279,2.137s-.262-.012-.287.467a5.9,5.9,0,0,0,.308,1.4c.117.6.462.6.462.6a11.662,11.662,0,0,0,.35,1.579,6.18,6.18,0,0,0,.475.9,8.776,8.776,0,0,1-.067,2.054,2.206,2.206,0,0,1-1,.462,19.416,19.416,0,0,0-2.171.417c-.592.208-2.3.854-2.6,2.179a.333.333,0,0,0,.329.4H20.167A.332.332,0,0,0,20.492,20.1Z" transform="translate(935.499 150.5)" fill="#fb641b"/>
  </g>
</svg>
