<svg xmlns="http://www.w3.org/2000/svg" width="15.847" height="26" viewBox="0 0 15.847 26">
  <g id="Group_1249" data-name="Group 1249" transform="translate(-704.152 -256)">
    <g id="add-location-point" transform="translate(698.637 256)">
      <g id="c28_geolocalization" transform="translate(5.515)">
        <path id="Path_2243" data-name="Path 2243" d="M13.44,0A7.9,7.9,0,0,0,5.515,7.871C5.515,10.1,7.7,14.08,7.7,14.08l5.452,9.246,5.687-9.139s2.527-3.8,2.527-6.316A7.9,7.9,0,0,0,13.44,0Z" transform="translate(-5.515)" fill="#2874f0"/>
      </g>
    </g>
    <path id="Icon_awesome-plus" data-name="Icon awesome-plus" d="M7.429,5.393H4.857V2.821a.571.571,0,0,0-.571-.571H3.714a.571.571,0,0,0-.571.571V5.393H.571A.571.571,0,0,0,0,5.964v.571a.571.571,0,0,0,.571.571H3.143V9.679a.572.572,0,0,0,.571.571h.571a.572.572,0,0,0,.571-.571V7.107H7.429A.571.571,0,0,0,8,6.536V5.964A.571.571,0,0,0,7.429,5.393Z" transform="translate(708 257.75)" fill="#fff"/>
    <path id="Path_2244" data-name="Path 2244" d="M116.73,417.444a6.027,6.027,0,0,0-1.571-.59,15.3,15.3,0,0,0-1.886-.333c-1.341,1.267-2.362,2.046-2.424,2.094l-.425.323-.425-.323c-.062-.047-1.083-.827-2.424-2.094a15.317,15.317,0,0,0-1.886.333,6.027,6.027,0,0,0-1.571.59,1.319,1.319,0,0,0,0,2.467,6.024,6.024,0,0,0,1.571.59,22.959,22.959,0,0,0,9.471,0,6.024,6.024,0,0,0,1.571-.59,1.319,1.319,0,0,0,0-2.467Z" transform="translate(601.487 -138.995)" fill="#2874f0"/>
  </g>
</svg>
