<svg xmlns="http://www.w3.org/2000/svg" width="48" height="42" viewBox="0 0 48 42">
  <g id="password_1_" data-name="password (1)" transform="translate(-2 -10)">
    <path id="Path_3702" data-name="Path 3702" d="M49.2,43.923h-.8V14.038A4.024,4.024,0,0,0,44.4,10H7.6a4.024,4.024,0,0,0-4,4.038V43.923H2.8a.8.8,0,0,0-.8.808v3.231A4.024,4.024,0,0,0,6,52H46a4.024,4.024,0,0,0,4-4.038V44.731A.8.8,0,0,0,49.2,43.923ZM5.2,14.038a2.412,2.412,0,0,1,2.4-2.423H44.4a2.412,2.412,0,0,1,2.4,2.423V43.923H5.2ZM22,45.538h8v.808a.8.8,0,0,1-.8.808H22.8a.8.8,0,0,1-.8-.808Zm26.4,2.423A2.412,2.412,0,0,1,46,50.385H6a2.412,2.412,0,0,1-2.4-2.423V45.538H20.4v.808a2.412,2.412,0,0,0,2.4,2.423h6.4a2.412,2.412,0,0,0,2.4-2.423v-.808H48.4Z" transform="translate(0 0)" fill="#019142"/>
    <path id="Path_3703" data-name="Path 3703" d="M45.6,42.8H8.8A.8.8,0,0,1,8,42V14.8a.8.8,0,0,1,.8-.8H45.6a.8.8,0,0,1,.8.8V42A.8.8,0,0,1,45.6,42.8Zm-36-1.6H44.8V15.6H9.6Z" transform="translate(-1.2 -0.8)" fill="#019142"/>
    <path id="Path_3704" data-name="Path 3704" d="M40.2,44.4H17.8a.8.8,0,0,1-.8-.8V38.8a.8.8,0,0,1,.8-.8H40.2a.8.8,0,0,1,.8.8v4.8A.8.8,0,0,1,40.2,44.4ZM18.6,42.8H39.4V39.6H18.6Z" transform="translate(-3 -5.345)" fill="#019142"/>
    <path id="Path_3705" data-name="Path 3705" d="M31.4,26.8a2.4,2.4,0,1,1,2.4-2.4,2.4,2.4,0,0,1-2.4,2.4Zm0-3.2a.8.8,0,1,0,.8.8A.8.8,0,0,0,31.4,23.6Z" transform="translate(-5.4 -2.296)" fill="#019142"/>
    <path id="Path_3706" data-name="Path 3706" d="M30.2,18a7.2,7.2,0,1,0,7.2,7.2A7.2,7.2,0,0,0,30.2,18ZM27.8,30.252V29.2a.8.8,0,0,1,.8-.8h3.2a.8.8,0,0,1,.8.8v1.052a5.53,5.53,0,0,1-4.8,0Zm6.392-1.132A2.4,2.4,0,0,0,31.8,26.8H28.6a2.4,2.4,0,0,0-2.392,2.32,5.6,5.6,0,1,1,7.984,0Z" transform="translate(-4.2 -1.506)" fill="#019142"/>
    <path id="Path_3707" data-name="Path 3707" d="M21,41h1.6v1.6H21Z" transform="translate(-3.8 -5.952)" fill="#019142"/>
    <path id="Path_3708" data-name="Path 3708" d="M25,41h1.6v1.6H25Z" transform="translate(-4.6 -5.952)" fill="#019142"/>
    <path id="Path_3709" data-name="Path 3709" d="M29,41h1.6v1.6H29Z" transform="translate(-5.4 -5.952)" fill="#019142"/>
    <path id="Path_3710" data-name="Path 3710" d="M33,41h1.6v1.6H33Z" transform="translate(-6.2 -5.952)" fill="#019142"/>
    <path id="Path_3711" data-name="Path 3711" d="M37,41h1.6v1.6H37Z" transform="translate(-7 -5.952)" fill="#019142"/>
  </g>
</svg>
