<svg xmlns="http://www.w3.org/2000/svg" width="11.455" height="18" viewBox="0 0 11.455 18">
    <path fill="#fff" d="M11.433 8.812a.818.818 0 0 0-.538-.588L6.881 6.886l2.851-5.7A.818.818 0 0 0 8.421.24L.24 8.421a.818.818 0 0 0 .32 1.355l4.014 1.338-2.851 5.7a.818.818 0 0 0 1.31.944l8.182-8.182a.818.818 0 0 0 .218-.764z"/>
    <path fill="#fb641b" d="M3.108 8.076L4.126 6.04a.818.818 0 0 0-.473-1.14L0 3.681 3.681 0 2.663 2.036a.818.818 0 0 0 .473 1.142L6.789 4.4z" transform="translate(2.333 4.962)"/>
</svg>
