<svg xmlns="http://www.w3.org/2000/svg" width="24" height="24" viewBox="0 0 24 24">
  <g id="Icon_ionic-ios-checkmark-circle-outline" data-name="Icon ionic-ios-checkmark-circle-outline" transform="translate(-3.375 -3.375)">
    <path id="Path_3696" data-name="Path 3696" d="M22.792,13.32l-1.015-1.044a.218.218,0,0,0-.162-.069h0a.209.209,0,0,0-.162.069l-7.038,7.09L11.854,16.8a.223.223,0,0,0-.323,0L10.5,17.831a.23.23,0,0,0,0,.329l3.231,3.231a1.022,1.022,0,0,0,.675.329,1.071,1.071,0,0,0,.669-.317h.006L22.8,13.649A.247.247,0,0,0,22.792,13.32Z" transform="translate(-1.267 -1.585)" fill="#019142"/>
    <path id="Path_3697" data-name="Path 3697" d="M15.375,4.99a10.381,10.381,0,1,1-7.344,3.04,10.316,10.316,0,0,1,7.344-3.04m0-1.615a12,12,0,1,0,12,12,12,12,0,0,0-12-12Z" fill="#019142"/>
  </g>
</svg>
