<svg id="google-maps" xmlns="http://www.w3.org/2000/svg" width="8.001" height="11.379" viewBox="0 0 8.001 11.379">
  <g id="Google_Maps_2_" transform="translate(0.213 3.639)">
    <g id="Group_1622" data-name="Group 1622">
      <path id="Path_3733" data-name="Path 3733" d="M89.745,165.829l-1.219,1.884-1.163.5a7.834,7.834,0,0,1-1.763-2.894l.7-1.3,1.12-.521a2.2,2.2,0,0,0-.033.366,2,2,0,0,0,2,2A2.2,2.2,0,0,0,89.745,165.829Z" transform="translate(-85.6 -163.5)" fill="#ffda2d"/>
    </g>
  </g>
  <path id="Path_3734" data-name="Path 3734" d="M241.829,15.8a2.178,2.178,0,0,0,.033-.364,2,2,0,0,0-1.994-2h0a2.2,2.2,0,0,0-.366.033l1.77-1.77a3.983,3.983,0,0,1,2.329,2.329l-1.77,1.77Z" transform="translate(-235.858 -11.44)" fill="#80aef8"/>
  <path id="Path_3735" data-name="Path 3735" d="M259.762,14.029l-.606,1.182-1.164.588v0a2.178,2.178,0,0,0,.033-.364,2,2,0,0,0-1.994-2h0V13.1l.4-.887,1-.517A3.983,3.983,0,0,1,259.762,14.029Z" transform="translate(-252.021 -11.44)" fill="#4086f4"/>
  <g id="Group_1623" data-name="Group 1623" transform="translate(1.992 2.611)">
    <path id="Path_3736" data-name="Path 3736" d="M170.847,116.7l-1.77,1.77a2.017,2.017,0,0,1-1.6,1.6h0l-1.927,1.927-.455.455.319.359a4.219,4.219,0,0,1,1.364,2.327.333.333,0,1,0,.665,0,4.219,4.219,0,0,1,1.364-2.327c1.025-1.151,2.3-2.588,2.3-4.7A3.813,3.813,0,0,0,170.847,116.7Z" transform="translate(-165.098 -116.7)" fill="#59c36a"/>
    <path id="Path_3737" data-name="Path 3737" d="M259.763,116.7l-1.77,1.77h0a2.016,2.016,0,0,1-1.6,1.6h0l-.365.365v5.035a.329.329,0,0,0,.332-.333,4.219,4.219,0,0,1,1.364-2.327c1.025-1.151,2.3-2.588,2.3-4.7A3.812,3.812,0,0,0,259.763,116.7Z" transform="translate(-254.014 -116.7)" fill="#00a66c"/>
  </g>
  <g id="Google_Maps_3_" transform="translate(4.001 5.967)">
    <path id="Path_3738" data-name="Path 3738" d="M256.031,268.865l.365-.365a2.207,2.207,0,0,1-.365.033Z" transform="translate(-256.031 -268.5)" fill="#fdbf00"/>
  </g>
  <path id="Path_3739" data-name="Path 3739" d="M133.025.26l-1.77,1.77a2.02,2.02,0,0,0-1.045.552l-1.029-.43-.382-.98A3.955,3.955,0,0,1,131.621,0,3.812,3.812,0,0,1,133.025.26Z" transform="translate(-127.629 0)" fill="#4086f4"/>
  <path id="Path_3740" data-name="Path 3740" d="M256.031,1.666l1.4-1.4a3.812,3.812,0,0,0-1.4-.259V1.666Z" transform="translate(-252.028 -0.003)" fill="#4175df"/>
  <path id="Path_3741" data-name="Path 3741" d="M78.582,54.211a2.02,2.02,0,0,0-.552,1.045l-1.817,1.817A5.023,5.023,0,0,1,76,55.621,3.955,3.955,0,0,1,77.171,52.8Z" transform="translate(-76 -51.629)" fill="#f03800"/>
</svg>
