<svg id="grid" xmlns="http://www.w3.org/2000/svg" width="14" height="14" viewBox="0 0 14 14">
  <path id="Rectangle" d="M0,0H4.12V4.12H0Z" transform="translate(4.94 9.88)" fill="#c2c2c2"/>
  <path id="Rectangle-2" d="M0,0H4.12V4.12H0Z" transform="translate(4.94 4.94)" fill="#c2c2c2"/>
  <path id="Rectangle-3" d="M0,0H4.12V4.12H0Z" transform="translate(9.88)" fill="#c2c2c2"/>
  <path id="Rectangle-4" d="M0,0H4.12V4.12H0Z" transform="translate(0 4.94)" fill="#c2c2c2"/>
  <path id="Rectangle-5" d="M0,0H4.12V4.12H0Z" transform="translate(9.88 4.94)" fill="#c2c2c2"/>
  <path id="Rectangle-6" d="M0,0H4.12V4.12H0Z" transform="translate(0 9.88)" fill="#c2c2c2"/>
  <path id="Rectangle-7" d="M0,0H4.12V4.12H0Z" transform="translate(9.88 9.88)" fill="#c2c2c2"/>
  <path id="Rectangle-8" d="M0,0H4.12V4.12H0Z" fill="#c2c2c2"/>
  <path id="Rectangle-9" d="M0,0H4.12V4.12H0Z" transform="translate(4.94)" fill="#c2c2c2"/>
</svg>
