<svg id="Icon_feather-mail" data-name="Icon feather-mail" xmlns="http://www.w3.org/2000/svg" width="8" height="6.4" viewBox="0 0 8 6.4">
  <g id="Path_3728" data-name="Path 3728" transform="translate(-3 -6)" fill="none" stroke-linecap="round" stroke-linejoin="round">
    <path d="M3.8,6h6.4a.8.8,0,0,1,.8.8v4.8a.8.8,0,0,1-.8.8H3.8a.8.8,0,0,1-.8-.8V6.8A.8.8,0,0,1,3.8,6Z" stroke="none"/>
    <path d="M 3.800000190734863 6.5 C 3.637380599975586 6.5 3.500000953674316 6.63737964630127 3.500000953674316 6.800000190734863 L 3.500000953674316 11.60000038146973 C 3.500000953674316 11.762619972229 3.637380599975586 11.89999961853027 3.800000190734863 11.89999961853027 L 10.20000076293945 11.89999961853027 C 10.36262035369873 11.89999961853027 10.5 11.762619972229 10.5 11.60000038146973 L 10.5 6.800000190734863 C 10.5 6.63737964630127 10.36262035369873 6.5 10.20000076293945 6.5 L 3.800000190734863 6.5 M 3.800000190734863 6 L 10.20000076293945 6 C 10.64000034332275 6 11 6.359999656677246 11 6.800000190734863 L 11 11.60000038146973 C 11 12.03999996185303 10.64000034332275 12.39999961853027 10.20000076293945 12.39999961853027 L 3.800000190734863 12.39999961853027 C 3.360000610351563 12.39999961853027 3.000000953674316 12.03999996185303 3.000000953674316 11.60000038146973 L 3.000000953674316 6.800000190734863 C 3.000000953674316 6.359999656677246 3.360000610351563 6 3.800000190734863 6 Z" stroke="none" fill="#ff755e"/>
  </g>
  <path id="Path_3729" data-name="Path 3729" d="M10.013,9,6.506,11.454,3,9" transform="translate(-2.426 -7.854)" fill="none" stroke="#ff755e" stroke-linecap="round" stroke-linejoin="round" stroke-width="0.5"/>
</svg>
