<svg xmlns="http://www.w3.org/2000/svg" width="14.596" height="10" viewBox="0 0 14.596 10">
    <g>
        <g>
            <path fill="#2874f0" d="M13.313 80.609H1.283A1.284 1.284 0 0 0 0 81.892v7.434a1.284 1.284 0 0 0 1.283 1.283h12.03a1.284 1.284 0 0 0 1.287-1.283v-7.434a1.284 1.284 0 0 0-1.287-1.283zm-.167.855l-.171.143-5.168 4.3a.8.8 0 0 1-1.018 0l-5.168-4.3-.171-.143zm-12.29.617l4.21 3.506-4.21 2.8zm12.458 7.672H1.283a.428.428 0 0 1-.419-.342l4.888-3.253.49.408a1.651 1.651 0 0 0 2.112 0l.49-.408 4.887 3.253a.428.428 0 0 1-.418.343zm.428-1.364l-4.21-2.8 4.21-3.506z" transform="translate(0 -80.609) translate(0 80.609) translate(0 -80.609)"/>
        </g>
    </g>
</svg>
