<svg xmlns="http://www.w3.org/2000/svg" width="16" height="13.815" viewBox="0 0 16 13.815">
  <g id="Group_1652" data-name="Group 1652" transform="translate(-400 -421.001)">
    <path id="Path_2862" data-name="Path 2862" d="M231.147,160.064l2.29,2.29.011-.12a2.183,2.183,0,0,0-2.181-2.181Z" transform="translate(176.731 265.31)" fill="#cee0ff"/>
    <path id="Path_2863" data-name="Path 2863" d="M152.552,65.872a3.637,3.637,0,0,1,3.636,3.636,3.579,3.579,0,0,1-.258,1.327l2.127,2.127a8.635,8.635,0,0,0,2.5-3.454,8.6,8.6,0,0,0-8-5.453,8.5,8.5,0,0,0-2.9.509l1.571,1.567A3.654,3.654,0,0,1,152.552,65.872Z" transform="translate(255.446 358.037)" fill="#cee0ff"/>
    <path id="Path_2864" data-name="Path 2864" d="M.727,32.98l1.658,1.658.331.331A8.612,8.612,0,0,0,0,38.6a8.589,8.589,0,0,0,11.187,4.839l.309.309,2.12,2.123.927-.923L1.654,32.053ZM4.748,37l1.123,1.123a2.3,2.3,0,0,0-.055.476A2.183,2.183,0,0,0,8,40.778a2.241,2.241,0,0,0,.473-.055l1.123,1.123a3.577,3.577,0,0,1-1.6.385A3.612,3.612,0,0,1,4.748,37Z" transform="translate(400 388.948)" fill="#cee0ff"/>
  </g>
</svg>
