<svg xmlns="http://www.w3.org/2000/svg" width="8" height="8.016" viewBox="0 0 8 8.016">
  <g id="Icon_feather-phone" data-name="Icon feather-phone" transform="translate(-3.168 -3)" fill="none" stroke-linecap="round" stroke-linejoin="round">
    <path d="M11.168,9v1.207a.8.8,0,0,1-.877.8A7.96,7.96,0,0,1,6.819,9.778,7.844,7.844,0,0,1,4.406,7.364,7.96,7.96,0,0,1,3.171,3.877.8.8,0,0,1,3.972,3H5.178a.8.8,0,0,1,.8.692,5.165,5.165,0,0,0,.282,1.13.8.8,0,0,1-.181.849l-.511.511A6.436,6.436,0,0,0,7.986,8.6L8.5,8.084A.8.8,0,0,1,9.345,7.9a5.165,5.165,0,0,0,1.13.282A.8.8,0,0,1,11.168,9Z" stroke="none"/>
    <path d="M 10.36313819885254 10.51573467254639 C 10.43952751159668 10.51573467254639 10.51260757446289 10.48728466033936 10.56892776489258 10.43560409545898 C 10.63196754455566 10.37777423858643 10.66791820526123 10.29555416107178 10.66756820678711 10.20798397064209 L 10.66756820678711 9.001274108886719 C 10.66756820678711 8.99714469909668 10.66761779785156 8.993003845214844 10.66771793365479 8.988874435424805 C 10.67155838012695 8.834294319152832 10.55898761749268 8.701434135437012 10.4103479385376 8.680444717407227 C 9.987418174743652 8.624664306640625 9.570318222045898 8.520764350891113 9.169478416442871 8.371184349060059 C 9.135078430175781 8.358254432678223 9.099098205566406 8.351694107055664 9.062518119812012 8.351694107055664 C 8.981758117675781 8.351694107055664 8.905668258666992 8.382954597473145 8.850257873535156 8.437724113464355 L 8.339418411254883 8.948564529418945 C 8.243144989013672 9.044843673706055 8.11513614654541 9.095025062561035 7.985701560974121 9.095025062561035 C 7.901165962219238 9.095025062561035 7.816019535064697 9.073616981506348 7.738718032836914 9.029664039611816 C 6.653977870941162 8.412854194641113 5.75458812713623 7.513474464416504 5.137787818908691 6.428744316101074 C 5.026537895202637 6.233084201812744 5.059728145599365 5.987204074859619 5.218877792358398 5.828044414520264 L 5.727767944335938 5.319164276123047 C 5.811058044433594 5.234934329986572 5.837947845458984 5.108854293823242 5.795837879180908 4.996834278106689 C 5.646708011627197 4.597184181213379 5.542798042297363 4.180084228515625 5.487648010253906 3.761734247207642 C 5.466547966003418 3.612434387207031 5.336987972259521 3.499854326248169 5.183887958526611 3.499864339828491 C 5.182007789611816 3.499884366989136 5.18012809753418 3.499894380569458 5.178247928619385 3.499894380569458 L 3.971997976303101 3.499894380569458 C 3.886748075485229 3.499974250793457 3.804888010025024 3.536134243011475 3.74741792678833 3.599084377288818 C 3.69059681892395 3.661333322525024 3.662036895751953 3.744943141937256 3.668812274932861 3.828879833221436 C 3.792556047439575 4.986709594726563 4.192501068115234 6.115063190460205 4.827958106994629 7.096004486083984 C 5.402307987213135 7.999864101409912 6.183658123016357 8.781224250793457 7.091427803039551 9.358084678649902 C 8.063922882080078 9.988733291625977 9.186775207519531 10.38864326477051 10.33898639678955 10.5147705078125 C 10.34705066680908 10.51541519165039 10.35510635375977 10.51573467254639 10.36313819885254 10.51573467254639 M 10.36313915252686 11.01573276519775 C 10.33904266357422 11.01573276519775 10.3148946762085 11.01465225219727 10.29068756103516 11.01246452331543 C 9.052937507629395 10.87796401977539 7.863987922668457 10.4550142288208 6.819377899169922 9.777594566345215 C 5.847507953643799 9.160024642944336 5.023518085479736 8.336044311523438 4.405948162078857 7.364164352416992 C 3.726157903671265 6.31481409072876 3.303117990493774 5.120084285736084 3.171087980270386 3.876764297485352 C 3.150758028030396 3.651864290237427 3.225898027420044 3.428774356842041 3.378138065338135 3.261994361877441 C 3.530387878417969 3.095214366912842 3.745718002319336 3.000104188919067 3.971538066864014 2.999894380569458 L 5.178247928619385 2.999894380569458 C 5.180909633636475 2.999867916107178 5.183637142181396 2.999854564666748 5.186293601989746 2.999854564666748 C 5.586631298065186 2.999854564666748 5.926580429077148 3.294539928436279 5.982728004455566 3.691744327545166 C 6.033658027648926 4.077914237976074 6.128108024597168 4.457094192504883 6.264287948608398 4.822024345397949 C 6.374797821044922 5.11601448059082 6.304118156433105 5.447434425354004 6.083278179168701 5.6707444190979 L 5.572437763214111 6.181594371795654 C 6.145048141479492 7.188614368438721 6.978847980499268 8.022404670715332 7.985867977142334 8.595014572143555 L 8.496707916259766 8.084174156188965 C 8.650035858154297 7.932555675506592 8.854377746582031 7.851698875427246 9.062517166137695 7.851698875427246 C 9.157529830932617 7.851698875427246 9.253290176391602 7.868528842926025 9.345427513122559 7.903164386749268 C 9.710368156433105 8.03934383392334 10.08953762054443 8.133804321289063 10.47571754455566 8.184734344482422 C 10.88018798828125 8.241794586181641 11.17769813537598 8.592924118041992 11.16756820678711 9.001274108886719 L 11.16756820678711 10.20798397064209 C 11.16848754882813 10.43450450897217 11.0738582611084 10.65091419219971 10.90694808959961 10.80404472351074 C 10.75793838500977 10.94075202941895 10.56361103057861 11.01573276519775 10.36313915252686 11.01573276519775 Z" stroke="none" fill="#ee2e0f"/>
  </g>
</svg>
