<svg xmlns="http://www.w3.org/2000/svg" id="internet_1_" width="40" height="40" viewBox="0 0 40 40">
    <defs>
        <style>
            .cls-6{fill:#c12058}
        </style>
    </defs>
    <g id="Group_2476">
        <path id="Path_5056" fill="#22cac8" d="M38.828 0H1.172A1.172 1.172 0 0 0 0 1.173v7.139a1.172 1.172 0 0 0 1.172 1.173h37.656A1.172 1.172 0 0 0 40 8.312V1.173A1.172 1.172 0 0 0 38.828 0z"/>
        <path id="Path_5057" fill="#1daeb3" d="M274.828 0H256v9.485h18.828A1.172 1.172 0 0 0 276 8.312V1.173A1.172 1.172 0 0 0 274.828 0z" transform="translate(-236)"/>
        <path id="Path_5058" fill="#edf5ff" d="M0 106.391v30.515a1.172 1.172 0 0 0 1.172 1.173h37.656A1.172 1.172 0 0 0 40 136.906v-30.515z" transform="translate(0 -98.079)"/>
        <path id="Path_5059" fill="#d7e9ff" d="M256 138.079h18.828a1.172 1.172 0 0 0 1.172-1.173v-30.515h-20z" transform="translate(-236 -98.079)"/>
    </g>
    <path id="Path_5060" fill="#dd2056" d="M155.962 196.792l-.01-.036a9.293 9.293 0 1 0-14.612 10.019 9.363 9.363 0 0 0 5.458 1.966h.2a1.173 1.173 0 0 0 0-2.346h-.152a7 7 0 0 1-4.067-1.471 6.952 6.952 0 1 1 10.922-7.509 6.08 6.08 0 0 1-.382 4.034 2.214 2.214 0 0 1-2.01 1.3.521.521 0 0 1-.345-.169.953.953 0 0 1-.263-.668v-5.229a1.171 1.171 0 0 0-2.245-.47 3.365 3.365 0 0 0-1.389-.3 3.7 3.7 0 0 0-2.728 1.251 4.546 4.546 0 0 0-1.122 3.065 4.866 4.866 0 0 0 1.052 3.091 3.56 3.56 0 0 0 2.73 1.361 3.3 3.3 0 0 0 2.058-.729 3.145 3.145 0 0 0 .246.28 2.824 2.824 0 0 0 2.006.86 4.53 4.53 0 0 0 4.188-2.784 8.35 8.35 0 0 0 .465-5.516zM147 202.344c-.694 0-1.437-.846-1.437-2.106 0-1.233.765-1.97 1.505-1.97.7 0 1.209.673 1.29 1.668v.555c-.092 1.119-.745 1.853-1.358 1.853z" transform="translate(-127.001 -175.284)"/>
    <g id="Group_2477" transform="translate(20 14.855)">
        <path id="Path_5061" d="M257.171 399.4a1.172 1.172 0 0 0-1.171-1.171v2.346a1.173 1.173 0 0 0 1.171-1.175z" class="cls-6" transform="translate(-256 -381.972)"/>
        <path id="Path_5062" d="M264.951 196.761a9.306 9.306 0 0 0-8.951-6.617v2.347a6.958 6.958 0 0 1 6.7 4.929 6.08 6.08 0 0 1-.382 4.034 2.214 2.214 0 0 1-2.01 1.3.521.521 0 0 1-.345-.169.953.953 0 0 1-.263-.668v-5.229a1.171 1.171 0 0 0-2.245-.47 3.365 3.365 0 0 0-1.389-.3h-.067v2.346h.067c.7 0 1.209.673 1.29 1.668v.555c-.092 1.119-.744 1.852-1.357 1.853v2.346a3.3 3.3 0 0 0 2.057-.729 3.158 3.158 0 0 0 .246.28 2.824 2.824 0 0 0 2.006.86 4.53 4.53 0 0 0 4.188-2.784 8.35 8.35 0 0 0 .464-5.524z" class="cls-6" transform="translate(-256 -190.144)"/>
    </g>
    <path id="Path_5063" fill="#fb3" d="M430.673 40.53a1.173 1.173 0 1 0-1.172-1.173 1.186 1.186 0 0 0 1.172 1.173z" transform="translate(-395.946 -35.201)"/>
    <path id="Path_5064" d="M374.208 40.53a1.173 1.173 0 1 0-1.172-1.173 1.186 1.186 0 0 0 1.172 1.173z" class="cls-6" transform="translate(-343.892 -35.201)"/>
</svg>
