<svg xmlns="http://www.w3.org/2000/svg" width="16" height="20.869" viewBox="0 0 16 20.869">
  <g id="registration" transform="translate(-114.001 -4)">
    <path id="Path_8" data-name="Path 8" d="M128.44,4H115.562A1.54,1.54,0,0,0,114,5.518V23.352a1.477,1.477,0,0,0,.123.591,1.518,1.518,0,0,0,.144.258,1.572,1.572,0,0,0,1.294.669H128.44A1.54,1.54,0,0,0,130,23.352V5.518A1.54,1.54,0,0,0,128.44,4Zm0,0" transform="translate(0 0)" fill="#6100f3"/>
    <path id="Path_12" data-name="Path 12" d="M167.419,254.516h-11.7a.348.348,0,0,1,0-.7h11.7a.348.348,0,0,1,0,.7Zm0,0" transform="translate(-39.566 -237.959)" fill="#fff"/>
    <path id="Path_13" data-name="Path 13" d="M167.419,302.153h-11.7a.348.348,0,0,1,0-.7h11.7a.348.348,0,0,1,0,.7Zm0,0" transform="translate(-39.566 -283.525)" fill="#fff"/>
    <path id="Path_14" data-name="Path 14" d="M167.435,349.79h-11.72a.348.348,0,0,1,0-.7h11.72a.348.348,0,0,1,0,.7Zm0,0" transform="translate(-39.566 -329.091)" fill="#fff"/>
    <path id="Path_15" data-name="Path 15" d="M167.419,206.516h-11.7a.348.348,0,0,1,0-.7h11.7a.348.348,0,0,1,0,.7Zm0,0" transform="translate(-39.566 -192.046)" fill="#fff"/>
    <path id="Path_23" data-name="Path 23" d="M224.375,28.843a3.3,3.3,0,1,1,3.3-3.3A3.308,3.308,0,0,1,224.375,28.843Zm0-6.26a2.956,2.956,0,1,0,2.956,2.956A2.959,2.959,0,0,0,224.375,22.583Zm0,0" transform="translate(-102.417 -16.441)" fill="#fff"/>
    <path id="Icon_ionic-ios-person" data-name="Icon ionic-ios-person" d="M8.16,8.069c-.069-.3-.461-.451-.6-.5a4.443,4.443,0,0,0-.5-.1.5.5,0,0,1-.23-.106,2.008,2.008,0,0,1-.015-.47,1.414,1.414,0,0,0,.109-.207,2.669,2.669,0,0,0,.08-.361s.078,0,.106-.137a1.351,1.351,0,0,0,.071-.319c-.006-.11-.066-.107-.066-.107a1.672,1.672,0,0,0,.065-.489A.786.786,0,0,0,6.332,4.5a.782.782,0,0,0-.855.778,1.744,1.744,0,0,0,.064.489s-.06,0-.066.107a1.351,1.351,0,0,0,.071.319c.027.137.106.137.106.137a2.669,2.669,0,0,0,.08.361A1.414,1.414,0,0,0,5.84,6.9a2.008,2.008,0,0,1-.015.47.5.5,0,0,1-.23.106,4.443,4.443,0,0,0-.5.1c-.135.048-.527.2-.6.5a.076.076,0,0,0,.075.092H8.086A.076.076,0,0,0,8.16,8.069Z" transform="translate(115.677 2.767)" fill="#fff"/>
  </g>
</svg>
