<svg xmlns="http://www.w3.org/2000/svg" width="43.697" height="40" viewBox="0 0 43.697 40">
    <defs>
        <style>
            .cls-2{fill:#ff9100}
        </style>
    </defs>
    <g id="shipping" transform="translate(-.002 -21.637)">
        <g id="Group_2483" transform="translate(4.149 21.637)">
            <g id="Group_2482" transform="translate(0 2.344)">
                <g id="Group_2481">
                    <g id="Group_2480">
                        <path id="Path_5071" fill="#fdbf00" d="M83.265 49.118H70.89v.938H62.4v-.938H50.105a1.465 1.465 0 0 0-1.466 1.463v27.3a1.383 1.383 0 0 0 1.385 1.382h32.5a2.126 2.126 0 0 0 2.128-2.123V50.5a1.383 1.383 0 0 0-1.385-1.382z" transform="translate(-48.639 -49.118)"/>
                    </g>
                </g>
            </g>
            <path id="Path_5072" d="M275.335 21.638h-11.81v.938H259.3v7.666h-.014v23.931h16.652a1.312 1.312 0 0 0 1.312-1.313V23.107a1.926 1.926 0 0 0-1.915-1.469z" class="cls-2" transform="translate(-241.242 -21.638)"/>
            <path id="Path_5073" d="M83.184 21.638H70.89v.938H62.4v-.938H49.99a1.35 1.35 0 0 0-1.351 1.349v7.255H84.65V23.1a1.465 1.465 0 0 0-1.466-1.462z" class="cls-2" transform="translate(-48.639 -21.638)"/>
            <path id="Path_5074" fill="#ff641a" d="M275.876 21.638h-12.351v.938h-4.236v7.666h17.964v-7.225a1.378 1.378 0 0 0-1.377-1.379z" transform="translate(-241.242 -21.638)"/>
            <path id="Path_5075" fill="#ffe470" d="M217.531 36.231h-7.348a.562.562 0 0 1-.562-.562V21.638h8.471v14.031a.562.562 0 0 1-.561.562z" transform="translate(-195.852 -21.638)"/>
            <path id="Path_5076" fill="#ffda2d" d="M259.289 21.667V36.2a.03.03 0 0 0 .03.03h3.781a.429.429 0 0 0 .429-.429V21.667a.03.03 0 0 0-.03-.03h-4.175a.03.03 0 0 0-.03.03z" transform="translate(-241.278 -21.637)"/>
        </g>
        <path id="Path_5077" fill="#ffd9b3" d="M23.783 311.324a35.971 35.971 0 0 0 8.321-.977l4.562-1.092.02-11.223-3.1-1.573a8.777 8.777 0 0 0-7.7-.123l-2.867 1.333a4.74 4.74 0 0 1-2 .442h-6.544a1.7 1.7 0 1 0 0 3.4h11.538a1.51 1.51 0 0 1 1.524 1.605 1.479 1.479 0 0 1-1.474 1.354l-13.2-.185a6.8 6.8 0 0 1-4.918-2.156l-5.223-5.117a1.522 1.522 0 0 0-1.122-.493 2.341 2.341 0 0 0-1.475 1.015c-.013.018.167-.285.156-.265a2.081 2.081 0 0 0-.04 1.989l6.659 8.074a11.928 11.928 0 0 0 9.345 3.992h7.537z" transform="translate(0 -250.44)"/>
        <path id="Path_5078" fill="#fc9" d="M66.593 387.747a1.479 1.479 0 0 1-1.428 1.092l-13.2-.185a6.761 6.761 0 0 1-3.346-.907H42.74L46 391.7a11.927 11.927 0 0 0 9.345 3.992h7.537a35.971 35.971 0 0 0 8.321-.977l4.562-1.092.01-5.881h-9.182z" transform="translate(-39.094 -334.812)"/>
        <path id="Path_5079" fill="#4d2ee6" d="M433.239 304.005h-2.115a2.58 2.58 0 0 1-2.472-2.676V289.36a2.58 2.58 0 0 1 2.472-2.676h2.115a2.58 2.58 0 0 1 2.472 2.676v11.969a2.58 2.58 0 0 1-2.472 2.676z" transform="translate(-392.012 -242.368)"/>
        <path id="Path_5080" fill="#012f7e" d="M428.652 387.748v6.026a2.58 2.58 0 0 0 2.472 2.676h2.115a2.58 2.58 0 0 0 2.472-2.676v-6.026z" transform="translate(-392.012 -334.813)"/>
    </g>
</svg>
