<svg xmlns="http://www.w3.org/2000/svg" width="31.715" height="40" viewBox="0 0 31.715 40">
    <g>
        <path fill="#b4deb2" d="M83 131.025a6.533 6.533 0 0 1-4.778 2.088H59.536a6.514 6.514 0 0 1-6.494-7.012l1.787-22.515A2.812 2.812 0 0 1 57.621 101h22.52a2.813 2.813 0 0 1 2.792 2.586l1.786 22.514A6.531 6.531 0 0 1 83 131.025z" transform="translate(-53.023) translate(0 -93.113)"/>
        <path fill="#86c983" d="M270.007 131.025a6.533 6.533 0 0 1-4.778 2.088h-9.355V101h11.27a2.813 2.813 0 0 1 2.792 2.586l1.786 22.509a6.531 6.531 0 0 1-1.715 4.93z" transform="translate(-53.023) translate(-187.003 -93.113)"/>
        <path fill="#b5b51f" d="M172.5 7.732v5.386a1.171 1.171 0 1 1-2.343 0V7.732a5.4 5.4 0 0 0-5.389-5.39h-.01a5.4 5.4 0 0 0-5.379 5.39v5.386a1.171 1.171 0 0 1-2.343 0V7.732A7.741 7.741 0 0 1 164.758 0h.01a7.741 7.741 0 0 1 7.732 7.732z" transform="translate(-53.023) translate(-95.888)"/>
        <path fill="#fffce5" d="M194.953 251.894l-5.288 5.288-.771.771a1.171 1.171 0 0 1-1.657 0l-2.84-2.84a1.171 1.171 0 0 1 1.656-1.656l2.012 2.011 1.6-1.6 3.632-3.632a1.172 1.172 0 1 1 1.656 1.657z" transform="translate(-53.023) translate(-120.795 -230.371)"/>
        <path fill="#ffe89c" d="M261.162 250.238a1.172 1.172 0 0 1 0 1.657l-5.288 5.288v-3.314l3.632-3.632a1.172 1.172 0 0 1 1.656.001z" transform="translate(-53.023) translate(-187.003 -230.372)"/>
        <path fill="#98981a" d="M263.615 7.732v5.386a1.171 1.171 0 1 1-2.343 0V7.732a5.4 5.4 0 0 0-5.389-5.39h-.01V0h.01a7.741 7.741 0 0 1 7.732 7.732z" transform="translate(-53.023) translate(-187.002)"/>
    </g>
</svg>
