<svg xmlns="http://www.w3.org/2000/svg" xmlns:xlink="http://www.w3.org/1999/xlink" width="376" height="440" viewBox="0 0 376 440">
  <defs>
    <clipPath id="clip-path">
      <path id="Path_2191" data-name="Path 2191" d="M89.172,132.269l-47.544-5.9a8.925,8.925,0,0,1-7.8-9.944l1.792-69.365a8.961,8.961,0,0,1,9.944-7.8l61.178,4.252c4.884.6,9.417,10.858,8.82,15.742L99.116,124.468a8.961,8.961,0,0,1-9.944,7.8Z" transform="translate(-33.761 -39.192)" fill="#199e99"/>
    </clipPath>
  </defs>
  <g id="Layer_2" data-name="Layer 2" transform="translate(0 1.506)">
    <g id="Layer_1" data-name="Layer 1" transform="translate(0 -1.506)">
      <path id="Path_2162" data-name="Path 2162" d="M10.025,58.469C10.025,52.179,21.3,26,21.3,26s11.35,26.073,11.35,32.363a11.35,11.35,0,0,1-22.665,0Z" transform="translate(25.114 70.654)" fill="#ff4f4f"/>
      <path id="Path_2163" data-name="Path 2163" d="M13.933,170.726a.738.738,0,0,1-.773-.738V34.983a.773.773,0,0,1,.773-.773.738.738,0,0,1,.738.773V169.988A.738.738,0,0,1,13.933,170.726Z" transform="translate(33.083 91.293)" fill="#ffd3d2"/>
      <path id="Path_2164" data-name="Path 2164" d="M77.729,54.09,95.3,56.585A92.629,92.629,0,0,1,85.6,75.7c-4.533,7.028-24.879,17.043-16.445,24.316s18.8-10.19,25.863-11.35,21.084,6.079,16.375,11.947-12.791-3.057-15.461-.492-10.12,17.57-30.571,15.321S38.654,101.669,44.277,92.392,77.729,54.09,77.729,54.09Z" transform="translate(103.928 141.27)" fill="#ce8e3a"/>
      <path id="Path_2165" data-name="Path 2165" d="M35.64,93.215s2-30.993,10.542-50.214c11.877-27.022,41.6-21.927,51.022-8.4s6.466,60.475,6.466,60.475Z" transform="translate(87.553 64.546)" fill="#ff4f4f"/>
      <rect id="Rectangle_1095" data-name="Rectangle 1095" width="175.837" height="154.121" rx="3.73" transform="translate(0 285.879)" fill="#7c84ff"/>
      <path id="Path_2166" data-name="Path 2166" d="M55.746,40.282,48.05,89.9l36.229,4.146s-.949-33.488-2.389-44.03c-.668-5.13-8.047-7.941-13.388-9.1a66.237,66.237,0,0,0-12.756-.633Z" transform="translate(118.297 106.375)" fill="#2cbfc6"/>
      <circle id="Ellipse_853" data-name="Ellipse 853" cx="46.314" cy="46.314" r="46.314" transform="matrix(0.992, -0.125, 0.125, 0.992, 272.55, 108.199)" fill="#ff4f4f"/>
      <path id="Path_2167" data-name="Path 2167" d="M116.557,31.45,126.4,51.409l22.068,3.2L132.51,70.174,136.27,92.1,116.557,81.734,96.843,92.1l3.76-21.927L84.65,54.607l22.032-3.2Z" transform="translate(207.704 84.355)" fill="#fff"/>
      <circle id="Ellipse_854" data-name="Ellipse 854" cx="35.948" cy="35.948" r="35.948" transform="translate(141.775 70.966) rotate(-80.78)" fill="#2cc1c7"/>
      <path id="Path_2168" data-name="Path 2168" d="M70.5,3.03l7.625,15.5,17.113,2.495L82.872,33.074l2.917,17.043L70.5,42.07,55.182,50.117l2.952-17.043L45.73,21.021l17.113-2.495Z" transform="translate(112.49 12.909)" fill="#fff"/>
      <path id="Path_2169" data-name="Path 2169" d="M145.516,91.073A34.858,34.858,0,1,1,110.658,56.25a34.858,34.858,0,0,1,34.858,34.823Z" transform="translate(185.455 146.7)" fill="#4396ca"/>
      <path id="Path_2170" data-name="Path 2170" d="M116.1,63.285c-5.236-2.811-12.053.7-15.25,5.587-3.2-4.884-10.542-8.4-15.637-5.587a9.839,9.839,0,0,0-3.865,14.231c2.846,5.552,19.467,18.9,19.5,18.9s16.515-13.283,19.467-18.835a9.944,9.944,0,0,0-4.217-14.3Z" transform="translate(196.218 161.873)" fill="#fff"/>
      <path id="Path_2171" data-name="Path 2171" d="M105.883,23.186A19.291,19.291,0,1,1,86.592,4a19.292,19.292,0,0,1,19.291,19.186Z" transform="translate(165.666 15.347)" fill="#ff4f4f"/>
      <rect id="Rectangle_1096" data-name="Rectangle 1096" width="4.392" height="21.365" transform="translate(250.132 27.886)" fill="#fff"/>
      <rect id="Rectangle_1097" data-name="Rectangle 1097" width="21.365" height="4.392" transform="translate(241.622 36.355)" fill="#fff"/>
      <path id="Path_2172" data-name="Path 2172" d="M97.657,89.268A12.193,12.193,0,1,1,85.5,77.11,12.193,12.193,0,0,1,97.657,89.268Z" transform="translate(180.514 199.141)" fill="#2cc1c7"/>
      <rect id="Rectangle_1098" data-name="Rectangle 1098" width="2.776" height="13.493" transform="translate(264.672 281.662)" fill="#fff"/>
      <rect id="Rectangle_1099" data-name="Rectangle 1099" width="13.493" height="2.776" transform="translate(259.299 287.039)" fill="#fff"/>
      <path id="Path_2173" data-name="Path 2173" d="M113.258,66.559A24.984,24.984,0,1,1,88.274,41.61a24.984,24.984,0,0,1,24.984,24.949Z" transform="translate(155.681 109.896)" fill="#2cbfc6"/>
      <path id="Path_2174" data-name="Path 2174" d="M101.167,57.412A22.911,22.911,0,0,1,82.332,66.9a23.192,23.192,0,0,1-16.9-9.488,19.608,19.608,0,0,1,35.737,0Z" transform="translate(161.091 120.625)" fill="#fff"/>
      <path id="Path_2175" data-name="Path 2175" d="M83.57,54.335a7.555,7.555,0,1,1-7.555-7.555A7.555,7.555,0,0,1,83.57,54.335Z" transform="translate(168.751 122.893)" fill="#2cbfc6"/>
      <circle id="Ellipse_855" data-name="Ellipse 855" cx="31.977" cy="31.977" r="31.977" transform="translate(208.897 71.108)" fill="#6855ef"/>
      <path id="Path_2176" data-name="Path 2176" d="M101.365,52.057H66.647A3.057,3.057,0,0,1,63.59,49V26.792a3.022,3.022,0,0,1,3.057-3.022h34.718a3.022,3.022,0,0,1,3.057,3.022V49.176a3.057,3.057,0,0,1-3.057,2.881ZM69.739,45.978H98.378V29.849H69.669Z" transform="translate(156.511 65.048)" fill="#fff"/>
      <path id="Path_2177" data-name="Path 2177" d="M83.618,42.81a2.916,2.916,0,0,1-1.827-.6L63.94,28.824l3.514-4.884L83.407,35.923l15.18-11.772,3.8,4.779L85.516,42.353A3.163,3.163,0,0,1,83.618,42.81Z" transform="translate(157.396 65.475)" fill="#fff"/>
      <circle id="Ellipse_856" data-name="Ellipse 856" cx="47.016" cy="47.016" r="47.016" transform="translate(39.546 26.251) rotate(-9.22)" fill="#5555f3"/>
      <path id="Path_2178" data-name="Path 2178" d="M33.26,49.779a17.57,17.57,0,1,1,17.57-17.57A17.57,17.57,0,0,1,33.26,49.779Zm0-28.849A11.385,11.385,0,1,0,44.645,32.315,11.385,11.385,0,0,0,33.26,20.93Z" transform="translate(39.444 42.096)" fill="#fff"/>
      <path id="Path_2179" data-name="Path 2179" d="M44.64,50.009a17.57,17.57,0,1,1,17.57-17.57,17.57,17.57,0,0,1-17.57,17.57Zm0-28.885A11.385,11.385,0,1,0,56.025,32.51,11.385,11.385,0,0,0,44.64,21.125Z" transform="translate(66.65 42.674)" fill="#fff"/>
      <path id="Path_2180" data-name="Path 2180" d="M48.046,38.536h0L23.1,38.255a3.057,3.057,0,0,1-2.53-4.568L31.109,14.712a3.092,3.092,0,0,1,2.46-1.546A2.987,2.987,0,0,1,36.2,14.4L50.47,33.687a3.022,3.022,0,0,1,.281,3.2A3.057,3.057,0,0,1,48.046,38.536ZM28.368,32.211l13.564.176L34.1,21.845Z" transform="translate(49.664 38.369)" fill="#fff"/>
      <path id="Path_2181" data-name="Path 2181" d="M36.044,19.211a3.022,3.022,0,0,1-.949-.176L24.307,15.521a3.057,3.057,0,1,1,1.862-5.8l10.788,3.514a3.057,3.057,0,0,1-.914,5.974Z" transform="translate(54.028 29.127)" fill="#fff"/>
      <path id="Path_2182" data-name="Path 2182" d="M34.187,47.8h-.246a3.022,3.022,0,0,1-2.671-3.514l3.514-32.082A3.092,3.092,0,0,1,38.3,9.5,3.057,3.057,0,0,1,41,13.017L37.49,45.1A3.057,3.057,0,0,1,34.187,47.8Z" transform="translate(76.997 29.101)" fill="#fff"/>
      <path id="Path_2183" data-name="Path 2183" d="M50.262,25.537a3.057,3.057,0,0,1-1.687-.527L31.427,13.344a3.08,3.08,0,1,1,3.514-5.06l17.113,11.7a3.022,3.022,0,0,1-1.722,5.552Z" transform="translate(74.17 24.733)" fill="#fff"/>
      <rect id="Rectangle_1100" data-name="Rectangle 1100" width="13.95" height="6.114" transform="translate(97.37 70.826)" fill="#fff"/>
      <path id="Path_2184" data-name="Path 2184" d="M26.3,27.162A3.057,3.057,0,0,1,23.24,24.1V13.317a3.057,3.057,0,1,1,6.114,0V24.1A3.057,3.057,0,0,1,26.3,27.162Z" transform="translate(57.313 31.085)" fill="#fff"/>
      <path id="Path_2185" data-name="Path 2185" d="M117.454,160.561l-76.428-.879a8.961,8.961,0,0,1-7.8-9.944L37.09,47.1a8.961,8.961,0,0,1,9.944-7.8l56.715,3.76a16.726,16.726,0,0,1,13.177,16.234l-14.056,73.793C102.555,138.071,122.373,161.123,117.454,160.561Z" transform="translate(81.359 103.919)" fill="#1ba09d"/>
      <rect id="Rectangle_1101" data-name="Rectangle 1101" width="28.287" height="18.132" transform="translate(150.231 148.092) rotate(-86.25)" fill="#fe924a"/>
      <circle id="Ellipse_857" data-name="Ellipse 857" cx="22.138" cy="22.138" r="22.138" transform="translate(132.968 125.82) rotate(-69.37)" fill="#fe924a"/>
      <path id="Path_2186" data-name="Path 2186" d="M59.193,87.9,43.24,73.77l45.224-6.29Z" transform="translate(106.395 174.932)" fill="#fbb"/>
      <path id="Path_2187" data-name="Path 2187" d="M49.679,38.285a5.868,5.868,0,1,1,.076-4.5,5.868,5.868,0,0,1-.076,4.5Z" transform="translate(94.741 80.893)" fill="#fe924a"/>
      <path id="Path_2188" data-name="Path 2188" d="M32.5,62.9S58.118,44.628,57.309,46.385c-1.195,2.565-7.028,52.709-2.354,55.626,9.488,5.939,41.816,17.991,49.792,17.57s19.748,4.322,20.521,9.8-8.89,8.855-13.669,5.025-6.782-5.06-9.066-3.971-59.737-9.769-65.148-15.6C33.871,110.866,27.757,88.306,32.5,62.9Z" transform="translate(75.42 121.601)" fill="#fe924a"/>
      <path id="Path_2189" data-name="Path 2189" d="M89.172,132.269l-47.544-5.9a8.925,8.925,0,0,1-7.8-9.944l1.792-69.365a8.961,8.961,0,0,1,9.944-7.8l61.178,4.252c4.884.6,9.417,10.858,8.82,15.742L99.116,124.468a8.961,8.961,0,0,1-9.944,7.8Z" transform="translate(82.851 103.818)" fill="#199e99"/>
      <path id="Path_2192" data-name="Path 2192" d="M63.73,45.166C70.758,58.624,57.3,92.077,57.3,92.077L29.61,84.733S36.638,53.7,41.487,44.463,60.708,39.509,63.73,45.166Z" transform="translate(72.899 103.529)" fill="#2cbfc6"/>
      <path id="Path_2193" data-name="Path 2193" d="M16.759,84.817C12.331,80.39,2,54,2,54S28.5,64.542,32.923,68.864A11.355,11.355,0,1,1,16.759,84.817Z" transform="translate(5.028 141.044)" fill="#ff4f4f"/>
      <path id="Path_2194" data-name="Path 2194" d="M16.759,70.557C12.331,66.13,2,39.67,2,39.67S28.5,50.212,32.923,54.534A11.38,11.38,0,1,1,16.759,70.557Z" transform="translate(5.028 105.019)" fill="#ff4f4f"/>
      <path id="Path_2195" data-name="Path 2195" d="M35.008,84.817C39.435,80.39,49.872,54,49.872,54S23.412,64.542,18.984,68.864A11.33,11.33,0,0,0,35.008,84.887Z" transform="translate(39.382 141.044)" fill="#ff4f4f"/>
      <path id="Path_2196" data-name="Path 2196" d="M35.008,70.557C39.435,66.13,49.872,39.67,49.872,39.67S23.412,50.212,18.984,54.534A11.33,11.33,0,0,0,35.008,70.557Z" transform="translate(39.382 105.019)" fill="#ff4f4f"/>
      <path id="Path_2197" data-name="Path 2197" d="M39.89,46.344a90.449,90.449,0,0,0,22.946-4.709A25.335,25.335,0,0,0,74.959,31.094s1.23,11.877,7.766,17.57,6.747,4.182,6.747,4.182-1.441-18.237-16.2-26.038-22.138,0-27.444,4.92S39.89,46.344,39.89,46.344Z" transform="translate(98.124 64.365)" fill="#ff4f4f"/>
      <rect id="Rectangle_1102" data-name="Rectangle 1102" width="45.505" height="70.911" transform="translate(165.125 262.82) rotate(-88.58)" fill="#ffd3d2"/>
      <path id="Path_2198" data-name="Path 2198" d="M69.108,71.255a6.149,6.149,0,1,1-1.763-4.416,6.149,6.149,0,0,1,1.763,4.416Z" transform="translate(140.056 168.697)" fill="#fff"/>
      <path id="Path_2199" data-name="Path 2199" d="M10.565,67.87H48.55a3.514,3.514,0,0,1,3.338,3.971L46.372,106.98a3.514,3.514,0,0,1-3.338,2.881H16.047a3.514,3.514,0,0,1-3.338-2.881L7.192,71.841a3.514,3.514,0,0,1,3.373-3.971Z" transform="translate(18.003 175.912)" fill="#fe924a"/>
      <path id="Path_2200" data-name="Path 2200" d="M28.611,70.889,7.317,46.291a.8.8,0,0,1,1.124-1.124L28.681,68.6,51.065,46.221a.773.773,0,1,1,1.089,1.089Z" transform="translate(17.808 118.252)" fill="#ffd3d2"/>
      <path id="Path_2201" data-name="Path 2201" d="M28.193,82.055,7.461,60.761a.808.808,0,0,1,0-1.089.773.773,0,0,1,1.089,0l19.713,20.24L51.209,59.6a.808.808,0,0,1,1.089,0,.773.773,0,0,1,0,1.089Z" transform="translate(18.226 154.594)" fill="#ffd3d2"/>
      <circle id="Ellipse_858" data-name="Ellipse 858" cx="25.125" cy="25.125" r="25.125" transform="translate(283.042 43.102)" fill="#ffd3d2"/>
      <path id="Path_2202" data-name="Path 2202" d="M88.389,40.26a3.127,3.127,0,0,1-2.179-.914,3.057,3.057,0,0,1,0-4.322L106.7,15.03a3.057,3.057,0,1,1,4.252,4.357L90.532,39.381a2.987,2.987,0,0,1-2.144.878Z" transform="translate(209.376 40.37)" fill="#fff"/>
      <path id="Path_2203" data-name="Path 2203" d="M95.308,18.974a4.779,4.779,0,1,1-1.387-3.4A4.814,4.814,0,0,1,95.308,18.974Z" transform="translate(211.26 40.889)" fill="#fff"/>
      <path id="Path_2204" data-name="Path 2204" d="M99.708,23.224a4.814,4.814,0,1,1-4.814-4.814A4.814,4.814,0,0,1,99.708,23.224Z" transform="translate(221.354 51.573)" fill="#fff"/>
      <path id="Path_2205" data-name="Path 2205" d="M94.866,21.213a2,2,0,0,1-2,2,1.968,1.968,0,0,1-2-2,2,2,0,0,1,2-2A2.038,2.038,0,0,1,94.866,21.213Z" transform="translate(223.315 53.584)" fill="#ffd3d2"/>
      <path id="Path_2206" data-name="Path 2206" d="M90.5,16.963a2,2,0,0,1-2,2,1.968,1.968,0,0,1-2-2,2,2,0,0,1,2-2,2.038,2.038,0,0,1,2,2Z" transform="translate(213.319 42.9)" fill="#ffd3d2"/>
      <path id="Path_2207" data-name="Path 2207" d="M117.021,73.4H34.76V93.079c0,10.542,6.676,15.5,17.57,15.5h62.9c10.542,0,21.294-4.814,21.294-15.5v-.351a19.327,19.327,0,0,0-19.5-19.327Z" transform="translate(85.154 189.814)" fill="#6855ef"/>
      <path id="Path_2208" data-name="Path 2208" d="M83.891,82.283l9.8,111.286H78.866s-21.084-66.8-23.332-90.765S67.445,76.52,67.445,76.52Z" transform="translate(136.106 197.658)" fill="#6855ef"/>
      <path id="Path_2209" data-name="Path 2209" d="M70.9,80.831,81.056,193.593h-14.9S44.23,121.206,41.84,97.346s13-20.7,13-20.7Z" transform="translate(102.368 197.634)" fill="#6855ef"/>
      <path id="Path_2210" data-name="Path 2210" d="M76.513,109.83H62v11.139H91.517c1.968,0,2.635-4.392.914-5.341Z" transform="translate(152.686 281.397)" fill="#2cc1c7"/>
      <path id="Path_2211" data-name="Path 2211" d="M63.278,109.83H48.66v11.139H78.282c1.968,0,2.635-4.392.914-5.341Z" transform="translate(119.833 281.397)" fill="#2cc1c7"/>
    </g>
  </g>
</svg>
