<svg xmlns="http://www.w3.org/2000/svg" width="10.045" height="10" viewBox="0 0 10.045 10">
    <defs>
        <style>
            .cls-1{fill:#2874f0}
        </style>
    </defs>
    <g id="telephone" transform="translate(0 -.542)">
        <path id="Path_5082" d="M9.755 8.05L8.3 6.6a1.035 1.035 0 0 0-.735-.3 1.085 1.085 0 0 0-.772.322l-.565.565A6.882 6.882 0 0 1 4.6 6a6.886 6.886 0 0 1-1.183-1.632l.565-.568A1.068 1.068 0 0 0 4 2.3L2.55.844a1.03 1.03 0 0 0-.735-.3 1.086 1.086 0 0 0-.759.306 3.109 3.109 0 0 0-.983 1.792C-.254 4.236.5 5.77 2.662 7.936c2.419 2.418 4.484 2.606 5.059 2.606a1.912 1.912 0 0 0 .211-.01 2.4 2.4 0 0 0 1.827-1 1.1 1.1 0 0 0-.004-1.482zm-.481 1.092a1.773 1.773 0 0 1-1.414.771 1.388 1.388 0 0 1-.139.005c-.515 0-2.369-.175-4.618-2.423-2-2-2.7-3.368-2.419-4.728a2.452 2.452 0 0 1 .764-1.432l.019-.014.016-.021a.468.468 0 0 1 .332-.14.411.411 0 0 1 .294.12l1.452 1.457a.444.444 0 0 1-.02.626L2.9 4l-.011.011a.51.51 0 0 0-.055.593 7.572 7.572 0 0 0 1.328 1.834 7.563 7.563 0 0 0 1.827 1.323.563.563 0 0 0 .27.072.5.5 0 0 0 .378-.174l.6-.6a.466.466 0 0 1 .331-.139.415.415 0 0 1 .295.119L9.314 8.49a.49.49 0 0 1-.04.652z" class="cls-1"/>
        <path id="Path_5083" d="M140.089 22.984a3.055 3.055 0 0 1 2.516 2.531.322.322 0 0 0 .32.287h.035a.322.322 0 0 0 .285-.355 3.7 3.7 0 0 0-3.083-3.1.322.322 0 0 0-.074.64z" class="cls-1" transform="translate(-134.136 -20.863)"/>
        <path id="Path_5084" d="M133.082 54.4a1.929 1.929 0 0 1 1.514 1.522.322.322 0 0 0 .32.287h.035a.322.322 0 0 0 .285-.355 2.564 2.564 0 0 0-2.08-2.093.322.322 0 1 0-.074.64z" class="cls-1" transform="translate(-127.335 -51.028)"/>
    </g>
</svg>
