<svg xmlns="http://www.w3.org/2000/svg" width="10.989" height="11" viewBox="0 0 10.989 11">
  <g id="whatsapp" transform="translate(0)">
    <path id="Path_3682" data-name="Path 3682" d="M9.366,1.6a5.5,5.5,0,0,0-7.748,0A5.4,5.4,0,0,0,0,5.449v0H0A5.424,5.424,0,0,0,.669,8.026L.015,11l3.008-.684a5.506,5.506,0,0,0,2.469.587h0a5.48,5.48,0,0,0,3.877-1.6A5.393,5.393,0,0,0,9.366,1.6ZM5.495,10.044h0a4.64,4.64,0,0,1-2.206-.559l-.142-.077-2,.455.434-1.975L1.5,7.744A4.589,4.589,0,0,1,.859,5.451a4.635,4.635,0,0,1,7.9-3.245,4.564,4.564,0,0,1,1.371,3.247,4.62,4.62,0,0,1-4.636,4.591Zm0,0" fill="#00e676"/>
    <path id="Path_3683" data-name="Path 3683" d="M139.883,141.863h-.241a.462.462,0,0,0-.335.157,1.4,1.4,0,0,0-.44,1.045,2.433,2.433,0,0,0,.513,1.3,5.152,5.152,0,0,0,2.147,1.891c1.062.417,1.278.334,1.508.313a1.269,1.269,0,0,0,.848-.6,1.044,1.044,0,0,0,.073-.6c-.031-.052-.115-.083-.241-.146s-.742-.371-.857-.413-.2-.063-.283.063-.331.415-.4.5-.147.094-.272.031a3.475,3.475,0,0,1-1.006-.624,3.851,3.851,0,0,1-.706-.881c-.073-.125-.008-.193.055-.256s.133-.133.2-.206a.847.847,0,0,0,.123-.209.23.23,0,0,0-.01-.219c-.031-.063-.273-.682-.384-.93h0C140.071,141.874,139.972,141.867,139.883,141.863Zm0,0" transform="translate(-135.883 -138.815)" fill="#00e676"/>
  </g>
</svg>
